<svg id="Layer_1" data-name="Layer 1" xmlns="http://www.w3.org/2000/svg" xmlns:xlink="http://www.w3.org/1999/xlink" viewBox="0 0 247.42 211.16"><defs><style>.cls-1{fill:none;}.cls-2{clip-path:url(#clip-path);}.cls-3{fill:url(#linear-gradient);}</style><clipPath id="clip-path"><path id="kangaroo-mask" class="cls-1" d="M242.86,31.83c-.29-2.2-3.86-5-7.31-7.27-3.24-2.09-6.36-3.66-6.36-3.66-4.87-6-12.74-6.35-12.74-6.35-1.06-1.39-1-4.23-.53-7.13a1.74,1.74,0,0,0-3.13-1.32c-2.42,3.31-4.61,6.26-4.61,6.26C191.13.78,189.59,4.41,189.59,4.41c-.52,8.5,11.76,15.64,11.76,15.64-3.72,22.26-21.95,14.79-21.95,14.79-51.7-25.49-77.6-7.94-77.6-7.94-48.75,15.41-54.71,90.31-54.71,90.31A52.81,52.81,0,0,1,44.75,130,68,68,0,0,1,40.88,139C29.05,161.1,4.53,170.33,4.53,170.33c26.27.67,42.32-18.68,50.05-31.51A83.42,83.42,0,0,0,60,128l.16,0a2.25,2.25,0,0,0,.12-.37A285.48,285.48,0,0,1,79,77.27c.92-1.83,1.45-2.86,1.45-2.86C84,93.39,93.68,87.6,95.18,86.5a.85.85,0,0,0,.41.07c.1.09.18.19.28.28,2.79,2.49,3.93,6.25,4,10.64.09,11-6.75,26-11.74,35.42a26.87,26.87,0,0,0-2.18,19.62c2.53,9.31,5.49,20.37,5.49,20.37a36,36,0,0,1,.08,8.53,33.23,33.23,0,0,0,.47,10l.4,2c-2.31,3.23,0,7.43,0,7.43a4.54,4.54,0,0,0,2.08.05c-1.69.8-1.23,5.3-1.23,5.3.59.07,1.23.56,1.81-.1.17-.15.31-.37.46-.51a7.39,7.39,0,0,0,.49,1.63c.64.07.87-1.12,1.55-1.78,2.06-2.06,4.2-7,6-11.92a42.6,42.6,0,0,0,.58-26.85c-2.47-8.09-3.49-22.24-3.49-22.24.46-4.49,10-25.06,16.37-34.44-.6,3.57-3.06,18.68-3.8,21.49a19.37,19.37,0,0,0,1.69,14.08C118.15,151.72,122,159,122,159a25.81,25.81,0,0,1,1.46,5.95,23.72,23.72,0,0,0,2,7l.61,1.34c-1.09,2.63,1.22,5.19,1.22,5.19a3.24,3.24,0,0,0,1.46-.31c-1,.84,0,3.91,0,3.91.43-.05,1,.19,1.25-.37a4.63,4.63,0,0,0,.24-.43,5.14,5.14,0,0,0,.61,1.06c.46-.05.42-.92.79-1.5,1.11-1.77,1.79-5.57,2.21-9.3a30.6,30.6,0,0,0-4-18.87c-3.06-5.24-6.39-10.33-6.39-10.33-.61-4.77,9.33-29.26,9.33-29.26,4-4.61,3.45-10.95,4.49-16.58,1.1-1.56,2.13-3.11,3.09-4.63a51.34,51.34,0,0,0,3.26-5.46,9.65,9.65,0,0,1,4.28-4,9.78,9.78,0,0,1,5.39-.88,64.65,64.65,0,0,0,12.78.37,52.93,52.93,0,0,0,5.65-.67,1.54,1.54,0,0,1,1.76,1.08h0c.12.54.21,1.12.3,1.71a82.62,82.62,0,0,1,.42,13.39c-.34,2.58-1.8,3.23-3,3.29a3.71,3.71,0,0,0-3.09,1.83l-.08.15-.57.16a2.19,2.19,0,0,0-1.54,2.7,1.7,1.7,0,0,0-.31,3.3c9,3.17,15.84-8.65,15.84-8.65L182,98c1.05-2.38,2.52-5.74,4.13-9.47.86,2.5,1.4,4.57,1.4,4.57.36,2-.55,2.78-1.45,3.12a2.8,2.8,0,0,0-1.82,2l0,.13-.38.25a1.69,1.69,0,0,0-.49,2.34,1.31,1.31,0,0,0,.55,2.48c7.33.19,9.54-10,9.54-10l-.07-1.68c.33-3.13.85-8.26,1.33-13.46.12-1.3.24-2.61.35-3.89a12.08,12.08,0,0,1,1-3.92c11.7-8.92,18.2-20.65,20.79-26.14a7.24,7.24,0,0,1,4.83-3.93L227.8,39a6.77,6.77,0,0,1,2.37-.16,23.12,23.12,0,0,0,6.19.08h0a9.31,9.31,0,0,0,3.32-1.1A6.09,6.09,0,0,0,242.86,31.83Z"/></clipPath><linearGradient id="linear-gradient" y1="105.58" x2="247.42" y2="105.58" gradientUnits="userSpaceOnUse"><stop offset="0" stop-color="#349a46"/><stop offset="1" stop-color="#ffce06"/></linearGradient></defs><title>australiaload-svg</title><rect id="structure" class="cls-1" width="247.42" height="211.16"/><g class="cls-2"><rect id="load_bar" data-name="load bar" class="cls-3" width="247.42" height="211.16"/></g></svg>