<svg xmlns="http://www.w3.org/2000/svg" xmlns:xlink="http://www.w3.org/1999/xlink" viewBox="0 0 238.36 203.36"><defs><style>.cls-1{fill:url(#linear-gradient);}</style><linearGradient id="linear-gradient" y1="101.68" x2="238.36" y2="101.68" gradientUnits="userSpaceOnUse"><stop offset="0" stop-color="#390"/><stop offset="1" stop-color="#ffcd00"/></linearGradient></defs><title>kangaroo-loading-svg</title><g id="Layer_2" data-name="Layer 2"><g id="Layer_1-2" data-name="Layer 1"><path class="cls-1" d="M238.33,28c-.29-2.2-3.86-5-7.31-7.27-3.24-2.09-6.36-3.66-6.36-3.66-4.87-6-12.74-6.35-12.74-6.35-1.06-1.39-1-4.23-.53-7.13a1.74,1.74,0,0,0-3.13-1.32c-2.42,3.31-4.61,6.26-4.61,6.26C186.6-3.09,185.06.54,185.06.54c-.52,8.5,11.76,15.64,11.76,15.64C193.1,38.44,174.87,31,174.87,31,123.17,5.48,97.27,23,97.27,23c-48.75,15.41-54.71,90.31-54.71,90.31a53,53,0,0,1-2.34,12.79,68.14,68.14,0,0,1-3.87,9C24.52,157.23,0,166.46,0,166.46c26.27.67,42.32-18.68,50.05-31.51a82.81,82.81,0,0,0,5.42-10.82h.16a2.29,2.29,0,0,0,.12-.37A285.1,285.1,0,0,1,74.47,73.4c.92-1.83,1.45-2.86,1.45-2.86,3.55,19,13.23,13.19,14.73,12.09a.83.83,0,0,0,.41.07c.1.09.18.19.28.28,2.79,2.49,3.93,6.25,4,10.64.09,11-6.75,26-11.74,35.42a26.87,26.87,0,0,0-2.18,19.62C84,158,86.91,169,86.91,169a36.32,36.32,0,0,1,.08,8.53,33.23,33.23,0,0,0,.47,10l.4,2c-2.31,3.23,0,7.43,0,7.43a4.57,4.57,0,0,0,2.08,0c-1.69.8-1.23,5.3-1.23,5.3.59.07,1.23.56,1.81-.1.17-.15.31-.37.46-.51a7.13,7.13,0,0,0,.49,1.63c.64.07.87-1.12,1.55-1.78,2.06-2.06,4.2-7,6-11.92a42.6,42.6,0,0,0,.58-26.85c-2.47-8.09-3.49-22.24-3.49-22.24.46-4.49,10-25.06,16.37-34.44-.6,3.57-3.06,18.68-3.8,21.49a19.37,19.37,0,0,0,1.69,14.08l7.1,13.43a25.88,25.88,0,0,1,1.46,6,23.78,23.78,0,0,0,2,7l.61,1.34c-1.09,2.63,1.22,5.19,1.22,5.19a3.36,3.36,0,0,0,1.46-.31c-1,.84,0,3.91,0,3.91.43-.05,1,.19,1.25-.37a3.62,3.62,0,0,0,.24-.43,5.31,5.31,0,0,0,.61,1.06c.46-.05.42-.92.79-1.5,1.11-1.77,1.79-5.57,2.21-9.3a30.58,30.58,0,0,0-4-18.87c-3.06-5.24-6.39-10.33-6.39-10.33-.61-4.77,9.33-29.26,9.33-29.26,4-4.61,3.45-10.95,4.49-16.58,1.1-1.56,2.13-3.11,3.09-4.63a51.09,51.09,0,0,0,3.26-5.46,9.63,9.63,0,0,1,4.28-4,9.73,9.73,0,0,1,5.39-.88,65,65,0,0,0,12.78.37,53.73,53.73,0,0,0,5.65-.67A1.53,1.53,0,0,1,169,78.44h0c.12.54.21,1.12.3,1.71a83.15,83.15,0,0,1,.42,13.39c-.34,2.58-1.8,3.23-3,3.29a3.72,3.72,0,0,0-3.09,1.83l-.08.15-.57.16a2.18,2.18,0,0,0-1.54,2.68v0a1.7,1.7,0,0,0-.31,3.3c9,3.17,15.84-8.65,15.84-8.65l.54-2.19c1.05-2.38,2.52-5.74,4.13-9.47.86,2.5,1.4,4.57,1.4,4.57.36,2-.55,2.78-1.45,3.12a2.78,2.78,0,0,0-1.82,2v.13l-.38.25a1.69,1.69,0,0,0-.49,2.34h0a1.31,1.31,0,0,0,.55,2.48c7.33.19,9.54-10,9.54-10l-.07-1.68c.33-3.13.85-8.26,1.33-13.46.12-1.3.24-2.61.35-3.89a12.11,12.11,0,0,1,1-3.92c11.7-8.92,18.2-20.65,20.79-26.14a7.24,7.24,0,0,1,4.83-3.93l6.09-1.4a6.75,6.75,0,0,1,2.37-.16,23.33,23.33,0,0,0,6.19.08h0a9.29,9.29,0,0,0,3.32-1.1A6.09,6.09,0,0,0,238.33,28Z"/></g></g></svg>