<svg xmlns="http://www.w3.org/2000/svg" viewBox="0 0 229.5 215.47" class="content__australia-image">
  <defs>
    <style>
      .cls-1{opacity:0.2;}.cls-2{fill:#999;}
    </style>
  </defs>
  <title>
    australia
  </title>
  <g id="Layer_2" data-name="Layer 2">
    <g id="Ñëîé_1" data-name="Ñëîé 1">
      <g class="cls-1">
        <path id="AU-NT" class="cls-2" d="M101.41 14.32v-0.19l0.32-0.41-0.78-0.53-0.41-0.1 0 0-0.18-0.06-0.49-0.15-0.31-0.21 0 0.56 0 0.52 0 2.47-0.16-0.62h0.77l0.32-0.19-0.31 0-0.14-0.11-0.67-0.2-0.27 0-0.22 0-0.4-0.29-0.06-0.27 0-1.64-0.5-0.86-0.64-0.28-0.4-0.23-0.15-0.43-0.07-0.81-0.69h-0.11l-0.55-0.54-0.1-0.37-0.6-0.32-0.53 0 0-0.07-0.73-0.29 1 0.22 0L109 7l-0.24-0.75-0.26-0.47 0 0.54-0.19 1.14-0.2-0.87 0 0.44 1.53-0.21h0.28l0.28h0.39l0.27-0.09-0.29-0.28-0.39-0.09 0 0.14-0.14-0.22 0 0.76-0.07-0.14 0 0.47-0.06-0.31 0 0.56 0-0.11-0.59-0.35-0.12-0.09-0.35-0.13-0.07-0.32-0.06-0.14-0.43-0.14h0.39l0.71-0.57 0-0.4h0.21l0.19-0.17-1 0.81-0.65 0 0.18-0.12-0.24-0.38-0.23-0.47-0.19-0.45-0.15-0.05 0 0.3-0.23-1-0.15-0.2-0.53-0.34-0.15 0-0.14-0.58 1-0.64-0.11-0.13 1 0.4h0.26l0.22-0.16 0-0.12-0.37-0.14 0-0.11-0.11-1 0.68-0.34-0.57-0.13-0.71-0.26-0.06v0.56l-0.1-0.39 0-0.18-0.46 0-1-0.09-0.09-0.17 0-0.23-0.48h-0.23l-0.08-0.22-0.27-0.11-0.59-0.37-0.2v0.16l0.23-0.15-0.25-0.1-0.07-0.28 0 0.43-0.17-0.36L129.59 23l-0.15-0.66-0.74 1-0.46v0.42l-0.7h-0.23l0.35 1 0.23 1 0.65 1.51 1.4 1.49 1.3h0.32l0.58 1.09h0V93.87H95.79l-5 0h0l0-52.75h0V30.25h0V27.18h0l0.51-0.06 1.06-0.46L92 27.13 92 27l0.58 1.16 1.29 0 0.28-0.11-0.39-0.51-0.2-0.43-0.08-0.43-0.24-0.39-0.12-0.44-1 0.32-0.51-0.33-0.4-0.53-0.1-0.27-0.1-0.05-0.26 0-0.12-0.64-0.67-0.13-0.48-0.27-0.55-0.52-0.46-0.65-0.46 1.35-0.85-1.44 0-0.27-1 0.4-0.42 0 0.37-0.1-0.47-0.59 0-0.22-0.36-0.48-0.19-0.16-0.19 0L97 17.23l0.05-1 0.1-0.26-0.1 0 0.36-0.25-0.32 0-0.76 0-0.2-0.39 0-0.47-0.14-0.17-0.61-0.37-0.45L99.61 13l0.28-0.12Zm0.35-4-0.55-0.46-1-0.43-1-0.81-0.42-1.11-0.3-1.11 0-0.42-0.1-0.19-0.28-0.51h0.18l0.11 0-0.14-0.2-0.49-0.28-0.3 0 0.43-1.44 1.51-0.18 0-0.7-0.95ZM135.3 23.18l0.09-0.15h0.24l-0.14-0.3-0.78-0.21-0.67-1.43-0.36-1 0-0.42-0.49-0.27-0.15-0.14-0.16-0.36-0.4 0 0 0.26-0.21-0.2 0-0.19-0.14-0.06-0.56-0.3-0.34v0.54l0.16-0.19ZM99.13 9.72l-0.93-0.36-1.31-0.31-0.06-0.09-0.14 0-0.15-0.56h0.22l0.2-0.2v-0.8l-0.09-0.24-0.8-0.11 2.08-0.13-0.69ZM133 7.53l0-0.26-1.11-1 0.26-0.14-0.28 1.06-0.92 1.29-0.12ZM111 6.9l-0.17-0.18-0.2-0.55-0.16-1 0.43-0.16v0.56L111 6.9Zm25.13 25.85-0.32-0.24-0.36-0.52-0.3-0.32-0.15Zm-4.81-11.41 0-0.21-0.19-0.32-0.14h-0.24l-0.09-0.11-0.49-0.39-0.07-0.19Zm-0.1-12.47V8.61l0.51-0.41 0 0.74-0.58 0 0.28-0.56Zm1.92 22.81-0.14-0.07-0.49-0.22-0.09Z"/>
        <path id="AU-WA" class="cls-2" d="M7.51 93.88l0.1-0.2v-0.76L6.36 91.59l-0.67-1.26-0.62-1.55-0.59-0.37L4 87l-0.05-0.27L4 86.13l-0.35-0.57-0.71-0.83-0.2-0.59 0-1.22-0.6L3 81.57 3.53 80l0.39-0.78-0.63-0.52-0.71-0.12-0.81-1L5.07 75l-0.3-0.85-0.47-0.65L4.22 73 5 71.34l0.75-2.16-0.81-0.19-0.07-0.28-0.28 1.6-0.18 1.13L8.26 72l0.15-0.65-0.88-1.62-0.49 1.65-0.92 0 1.09-0.54 1.16-0.44-1.12-0.26-0.31-1 1.33-0.61-0.39-0.2 0 0.94-0.33-0.46-0.48L23.45 61l0.56h0.36l1.57-0.32-0.4 1.24-1.19-0.37H30l1.75-0.29 0 0.81-0.27-1 0.16-0.45-0.43-0.06 1.38 1.14-0.6 2.56-0.37-0.18 3.06-1.27-0.44 1.41-1.17 1.19-1.62-1.83L50 49.22l-0.07-0.48-0.44-0.13-0.15-0.33-0.44-0.17 1.18-0.93-0.42 0-0.32-0.16-0.15-0.45-0.13-0.25-0.38-0.07-1.11-0.33-0.86 0-1.15-0.7-0.79-0.66-0.24h0.72l-0.29-0.64-0.32-0.06h0.14l0.63-0.22-0.16-0.15-0.22-0.56-0.19L56 37l0.3-0.32 0-0.33-0.19-0.14-0.12-0.28 0-0.18 1.08 2L60 42.61l0.12-0.51-0.19-0.37 0-0.47-0.94L60.13 40l0.1-0.45h0.36l0.72-0.08-0.22-0.1-0.26-0.32-0.2-0.81-0.61-0.19-0.1L61.3 39l-0.08-0.07-0.28-0.58-0.62-0.67 0-0.64h-0.63l-0.43-0.39 0 0.83-0.58 0-0.3-0.06-0.23-0.63-0.12-0.2-0.19 0-0.51-0.17-0.19-0.13-0.29v-0.23l0.41-0.55 0 0.3-0.33-0.12-0.14-0.43 0-0.67-0.31L66 35.64l-0.3 0-0.46H64.9l-0.1-0.11L64.66 35l0.31-0.69 0 0.27-0.29 0-0.54-0.61-0.64-0.32-0.13-0.31-0.45H65.3l-0.49-0.43-0.16-1.14-1.11-0.07-0.22-0.15-0.06-1.11-0.06 1.17 1.06-0.59-0.52 0-0.13-0.5-0.12-0.12h-0.48l-0.56-0.07-0.33-0.29-0.1-0.39-0.17 0-0.74h-0.16l-0.16-0.44-0.23-0.12 0 0.29-0.2-0.08-0.2-0.24-0.25-0.07-0.5 0 0.21 0 0.11-0.11-0.1-0.08-0.17 0-0.15-0.14-0.16-0.62-0.44-0.55-0.27-0.22-0.05L69 26.44l0.61-0.87-0.44 1.13 0 0.06-0.7-0.11-0.68-0.39-0.11-0.49 2.07-0.11-1.2-0.11-0.55-0.19-1 0.43-0.88 0-0.36-0.37-0.95-0.36-0.23-0.06 0 0.43-0.29-0.23-0.1-0.31-0.52-0.44-0.05-0.26-0.61-0.88-0.24-1 0.63-0.26-0.13-0.09-0.22v-0.19l0.49 0 1 0.33 1.69 2.35-0.12 1 0.82-0.27-0.4 1.35 0 1.11-0.29-0.16-0.22-1.27 0-0.56L86.38 29l-0.18-0.73-0.88 0 0.15 0 0.06-0.26-0.23-0.41-0.17-0.76-0.24 2.62h0v3.07h0v10.9h0l0 52.75h0l-0.07 36.46h0l-1.16-1.35-2.09 1-1 0.39-1.55-2.27-1.18-2.47-1.62-0.16L74.82 134l-0.62-0.55-0.12-0.93L71.08 136l-0.4-0.8-1.73 1-0.66-0.74-1.94-0.68-0.52-0.47-0.59 1.7-0.26 1.12-0.54-0.51-0.2v0.19l-0.25-0.85L59 145l-0.14-0.34-0.26-0.38-0.38-0.89-0.47-0.2-1 0.33-0.65-0.09-0.76 0-0.11-0.8-0.45-0.09-0.32-0.2-0.06-0.75-0.22-0.07-0.26-0.16-0.59-0.33-0.42-0.12 0-0.43-0.31-0.46-1.45-0.53-0.35 0H47.5l-1.6H44.83l-0.4-1.41-0.7-0.92-0.23-1.4-0.07-1.08-0.42-0.69-0.29-0.47L37 148l-0.8-0.66-0.73-0.26-1-0.09-1 0.66-0.11-0.2-0.46-0.91-0.33-0.17-0.6-1.12-1.38 0 0.14-0.34-0.43-0.08-0.42-0.33-0.32-0.12-0.36 0-0.17-0.13-0.43-0.34-1.14-0.48H22.78l-0.3h-0.13l-0.83-0.27-0.69-0.8-0.23-1.37-0.92-1.37-0.31-0.34-0.8-0.56-0.65-0.94-0.95-0.85-0.57-1-0.54-0.41 0-0.41-0.26-0.64-0.68V147l-0.3-2.1 0-1.18-1.13 0 0.46-0.17-0.11 1.6-2.29-0.25-1.89-0.42-2.08-0.45-0.54 0 0.22-0.32v0.27l0.23-0.08v-0.36l0.26-0.95-0.17-1.68-0.85L16 133l0-1.34-0.21-1.16-0.13-0.37-1.38-2.51-0.39-1.16-0.33-0.76-0.8-1.4-0.68-1.74 0-0.18-0.18-1.32-0.37-1.29-0.12-0.1 0-2.51-1.18-0.28-1-0.14-0.24-0.09-0.6-0.3-0.7L9.65 112l-0.16-0.48 0-1L9 109.58l-1.1-1.65-0.42-0.26L7 107.05l-0.34-1.52-0.47-0.44L6.84 104l-0.27-1-0.77-1.6L5 99.94 3.82 98.2 2.1 96.37l-0.32-1L2 94.85l0-0.57 0-0.15-0.08 1.21-1 0.83 1 0.12 1.06 0 0-0.17-0.25-0.6 0-1.07L5 95.44l-0.77-0.51-0.57-0.59L3.29 93l-0.57-0.93-0.51L3.16 91l0.16-0.13-0.16 0 0.53 0L5 94.91 5.47 94l0.3 1.46-0.56-0.5-0.17-0.25L7.12 95l0.2-1.21Zm-5.83-0.16-0.14L0.68 93.37l-0.42-0.84-0.26-1L0 91l0.22-0.33L0.43 91l0 0.17 1.9 1 0.12ZM65.47 30.51l0-0.16-0.3-0.28 0-0.26-0.22-0.15ZM13.87 62.58l-0.19-0.16-0.14 0-0.05v-0.32l0.57-0.78-0.11 0 0.07 0 0.18-0.33ZM69 25.89l-0.3-0.16 0-0.44-0.33-0.28-0.13-0.2Z"/>
        <path id="AU-ACT" class="cls-2" d="M203.7 158.9l-0.66-0.33-0.75-1.11-0.15-0.41v-1l0.27-1.33 1.48-1.09-0.26L205 155l-0.42-0.27-0.33 1.29 1.43 0 0.2Z"/>
        <path id="AU-NSW" class="cls-2" d="M209 170.05l-10-5-0.51-0.05-0.79-0.5-0.52-1.06-0.36-0.45-0.29-2.3-0.62-0.39-0.94-0.4-0.48-0.8-0.15-0.52-0.53-0.51-0.94-0.76 0-1.26-0.39-0.5-0.4-0.58-0.09-0.35 0-0.2-0.59-1.17-0.1-1.61-0.31-0.4-0.16-0.66-0.64-0.41-0.32-0.14 0-0.43-0.49-0.49 0-0.2-0.16h-0.69l-0.7-0.11-0.19-1 0.28-0.22-0.06-0.7-0.4-1.18-1.39-0.29-0.66-0.13-0.14-0.32-0.1-0.57-0.51-0.44-0.6-1-0.52-0.86-0.66-0.4-0.14-0.24L173 155l-0.1-0.14-0.4-0.22-0.34-0.45-0.11-0.42-0.26-0.26-0.57-0.15-0.86-0.68v-0.43l-0.08-0.11-1.2-0.65-0.84-0.06-0.66-0.27-0.08-0.19-0.35-0.23-0.32-0.1-0.19-0.25-0.48-0.1-0.19-0.22 0-0.14-0.3-0.8-0.49-0.45 0-1-0.78-1.32-0.45-0.31-0.65-0.3-0.89-0.83-0.22-0.5-0.32-0.27-0.1-0.13-0.63-0.39-0.92-0.43-1-0.07-0.17-0.05-0.26-0.26h0l0-33.07h44.82l0.43-0.22-0.82 1.8-1.54-0.17 0 0.09 1.74-0.15L210 110l0.76-0.09 0 0.43 0 0.85-0.18 1.42 1.44 1.24 1 0.23-0.07-0.29-1 1-0.43 1.08-0.52-1-0.51-1.16-0.43-0.31 1.13-0.37-0.15-0.29-0.27 0 0.37 1.06-0.11-0.57-0.14-0.24-0.35h0l0.4-0.18 1.39-0.1 1.29-0.89 1.16-0.62 1.83-0.62 3.58-0.28 1-1 3-0.07 1.74 0 0.1-0.57 1.93-0.11-0.59 2-0.5 1-1.15 1.44-0.26-0.07-1 0.83-0.42-0.87 0 0.29-1.08-0.8-0.8 1.21-0.54 1.32-0.12-0.29 0-0.26-0.06-0.18-0.65-0.24 1.82-0.13-0.21-0.32 0-0.45-0.45-0.51-0.5-0.53 1.54-0.28 1.28-0.36-0.11-0.09-0.15-0.19-0.2-0.14-0.08-0.32h-0.15l-0.36 0 0.23-0.32-0.6-0.31 0 0.29-0.42 1.21-0.28L210 159.05l-0.14 1.19v1.5l-0.33-0.3 1.67-0.32 1.17-0.36 0 1 0.56v0.24l-0.16-0.05-0.24v0.82l0.19ZM204 158.46l0-0.21-0.13-1.42-1.29-0.38-0.2-0.22-0.35-0.23-0.52-0.18-0.3-0.36-0.66-0.37-1.48 1.09-0.27 1.33v1l0.15 1.12-0.42Z"/>
        <path id="AU-SA" class="cls-2" d="M131.9 147.1l-0.56-0.46-0.48-0.58-0.35-0.4 1.21 0 0.75-0.53-0.09 1.35-0.27-0.15-0.28-0.47-0.53-0.34-0.21-0.35-0.25h-0.21l-0.21-0.41-0.74-1-0.84-0.87-0.44-0.35-0.18-0.06-0.58-0.62-0.46 0 0.42-0.18-0.57-0.23-0.07-0.21 0-0.18-0.2-0.25-1.41-0.43-1.14-0.07-0.77-0.38-0.59-0.9-1-1.08-0.88-0.65-0.06-0.47-0.28-0.8-0.57-1.17-0.64-0.25-1 0.16-0.45-0.34-0.39v-0.17l-0.41-1.1-0.69-1.56 0 0.23-0.52-0.34-0.11-0.59-0.4-0.57-0.36-0.31-0.16 0-0.89-0.36-0.22-0.05v-0.54l0.17-0.37-0.16-0.7-1-0.56-0.34-0.36-0.31-0.25-0.39-0.12-0.14-0.08-0.46-1.8-0.13-0.17 0-0.4-0.42-0.51-0.19-0.8-0.75-0.27-0.15-1.13-0.14-0.54-0.42-0.49-0.35 0-0.39-0.1-1-1-1.46-1L104 129.37l-1.22-0.46-0.18 0-0.58-1 0.37-0.29 0-3-0.22-0.64 0-1.2-0.55-3.42-1.3h0l0-36.44h0l5 0h62.57v19h0l0 33.08h0l-0.15-0.19 0 28.24h0l-0.66-0.06-0.44-0.41 0-0.95-0.5-1-1-0.66-1.35-0.66-1-0.4-0.28h-0.32l-1-1.36-0.36-0.7-0.37 0-0.28-0.26-0.66-0.65-0.33-0.56v-0.94l-0.21-0.75-1-2.4-1.56-2.08-1-1.1-0.61-0.49 1.54 1.34 1 1.4-0.06-0.49-0.26-0.73-0.21-0.32-0.67-0.77-2-1.88v-0.61L148 156l0.43 0 0.86-0.05-0.61-0.92-0.09-0.66-0.81-0.4-0.44-0.31-0.33 0-0.29-0.11-0.25-1.52-0.13-0.4-0.34-0.31-2 0.1-0.46-0.34-0.6-0.37-0.93-0.91-0.06-0.24 0-0.44-0.6-0.19-1.11-0.61 0-0.3-0.35-0.6L143 149l-0.31-1.12-0.72-1.22-0.13 0-0.35-0.08-0.53-0.2-0.08 1.27L140 152.9v0.57l-0.41-0.8-0.37-0.41-0.1-0.22 0-1.06-0.24-0.13-0.79-0.12-0.43-0.32-0.19-0.09-0.16-0.27-0.33-0.38-0.33-1 0.27-0.39-0.13 0 0.1-0.15-0.28-1.63-0.1-1.28-1.26-0.24-0.85-0.12h0.27l0.17-0.32-0.95 0-0.48 1-1.26-0.63-0.07-0.24L141 142l-0.57-1.1-0.51-0.23-0.12h0.37l0.15-0.12 0-0.34-0.17-0.33-0.31-0.13-0.32-1.49-0.3-0.66-0.16-0.8-0.3-0.23 0 1.09 0 0.71-0.18 1-0.3 0-0.72-0.6L138 141l0 0.56-0.11-0.85 1.59-0.38-0.69 0-0.4-0.24-0.37-0.22-1.6-0.94-0.32 0 0.22-0.28Zm9 10.48v0.36l-0.41-0.67-0.33-0.91-0.06-0.79-0.11-0.16-0.74-0.55-0.56-0.75-0.14-0.2-0.07-0.16-0.67-0.06-0.74-1.06 0-0.18-0.3-0.8-0.66 0-0.25-0.77 2.07-0.62H136l0.53-0.13 1.11-0.49 1.18v0.57l0.08 0 0.35-0.53Z"/>
        <path id="AU-VIC" class="cls-2" d="M206.72 171.63 206 172l-0.83-2.72 0-0.95-0.93 0-1 0.07-1.95-1.15-1.23-0.95-0.9L192 177.7l-0.54-1.26-1.24-0.44-0.14-0.52 0-0.23-0.2 1.15-0.46-0.43 1.95-0.34-0.17-0.27-0.12-0.15-0.24-0.41-1.07-0.6-0.74-0.43-0.19-0.28-0.08-0.55-0.05-0.46-0.92-0.22-0.18-0.33-0.5-0.08-0.39-0.28-0.24-0.14-0.84-0.85-0.67-0.21-0.35-0.4-0.9-0.23-0.15-1.07-0.24-1 1.06-0.5-0.23 0-0.79-0.91h0.67l0.59-0.27-1.45-0.18-0.67-0.7-1.08-0.33-0.16-0.52-0.75-0.93-0.79-0.1 0 0.26-0.15-0.19-0.07-0.29-0.14-0.48-0.12-0.87-0.18-1.7 1.14-1.23 1.53-0.63-0.2-0.13-0.73-0.21-0.06-0.35-0.41-0.32-0.19-1.17-0.37-0.26-0.27-0.48-0.29-0.43-0.06-0.95-0.39L167 176.47l-0.88-0.35-0.62-0.11h-0.5l-0.55-0.32-0.56-0.46-0.81-0.17h-0.39l-0.41-0.33V176l0.17-0.44-0.66-0.32-0.49-0.59-1-0.92-0.51-0.33-0.76-0.36h0l0-28.24h0l0.26 0 1 0.08-0.15-0.43-0.2-0.18 1.32 0 1 0.48 0 0.13-0.32L168 150l0.09-0.14-0.11 1.2v0.43l-0.13-0.13-0.06 1 0.51 1.18 1.38 1-0.28-0.08-0.71-0.72-0.12-0.18h0.69l0.2 0 0.49-0.27-0.09H184l0.41 1.61 1.17-0.26-0.2-0.05 1.26-0.33 0 0.53-0.65-0.09-0.19 2.29 1.06 0 0.5-0.46 0 10 5h0l-0.45-0.64-0.63 1-0.51Zm-23.81 5-0.4-0.16-0.07-0.32-0.46-0.06h-0.37l-0.37Zm0 1-0.19-0.24-0.27-0.12-0.88 0-0.08-0.39-0.1 0 0Z"/>
        <path id="AU-QLD" class="cls-2" d="M209 72.77v0.1l0.34-0.29-1-0.37-0.76v-0.29l0.22-0.57-0.29-0.07L210 71l0.25-0.33-0.77v-0.46l0.15-0.31-0.16 0 0.3 1.08-0.36 2.43-0.07h0.19l0.26-0.08 0 0.17-0.27v-0.33l0.14-0.13 1.28 1.12 1.53 0 0.22-0.07-0.22 0 0.72 0 0.3 0 0.15-0.27-0.37 1.5 1.85 2.22-0.35-0.34 1.21-0.12h0l-0.42-0.62-0.75-0.43-0.93-0.06-1.06-0.92-0.2-0.37-0.38-0.25 0-0.32-0.12-0.22-1.13-0.63-0.54 1.15-0.18 1-1.08-0.35-0.16-0.2-0.4-1 0.43-0.51 1-0.27-0.28-0.12-0.06-0.23-0.51-0.07-1L215 111.14l-1.42-0.65-0.85-0.94 0-0.39-0.27-0.43-0.44-0.16 0L210 110l-0.81-1.74-0.49-0.15-0.09-0.19-0.14 0-0.63-1.8 1.53-0.66-0.43H159.05l-0.68 0h0v-19H141.45V37h0l1.1 1.1-0.05 1 0.14 1 0.11 1.12 0 1.49-0.27-0.29-0.26-0.6-0.15-0.54-1.22-0.88 1.33-1.74-1.17-0.86-1.65-0.15-1 0.34-2.15 1-2.25-0.71-0.56-1.52-0.25-1.64-0.48-0.82-0.65-0.13-0.45-0.57-0.67 0-0.7-1.7-1.61-0.06-0.25-0.26-0.29-0.25-1 0-0.17-0.13-0.36-0.26-0.77v0.46l0.24-0.24-0.32-0.92-0.25-0.19-0.69-1 0.17-0.14-0.11-0.08-0.37 0 0 0.34-0.32-0.2-0.09V13.7l0.53-1.14-0.68-0.09-0.2-0.73-0.36-0.11-0.12-0.14-0.46-0.44 0-0.24-0.66-2.49-1.28-0.11-1 0.05-0.14-0.15-0.15-0.42-0.64 0 0.53-0.17-0.38 0 0.53-0.46 0 0.76 1.78-0.14L168.9 9l0 0.67 0 0.36-0.17-0.54-0.12 0 0.63 0 0.49 0 0.61 0 0.39-0.31-0.08-0.06L172.46 17l0.13 1.19 0 0.21 0 0.54-0.32 1.33 1 0.48h0.7l0.8-0.63 1.59-0.72-0.53 0 0.36-0.07 0 0.35 1.39 0 0.34-0.43 0 0.34-0.23 1v1.06l0.29-0.09 1.19-0.21 0 0.6 1.92 2.4-0.16-0.08-0.44 0 0.18 1 0.3 1.1-0.11 0 0.39-0.52 1.1 0 0.57 1.14 1.49 0 0.66-0.26-0.07 0 0.2 0 0.7H192l0.67 1-0.07-0.18-0.25-0.44 1 0.22 1.14-0.07-0.09-0.48 0-0.21h0.34l0.17 0 0.69-0.18 0 0.16-0.13 0-0.35-0.17-0.16-0.21 1 0.22-0.32-0.08-0.27-0.28-0.23-0.11-0.27-0.42 0 0.45L205.91 68l0.52 1.84v0.61l-0.17-0.19-0.25-0.23 1.09Zm17.5 19.83-0.25 0-0.23-0.31-0.3-1.11-0.74-0.63v-0.54l-0.08-0.13-0.49-0.47-0.51 0-0.28-0.06-0.21-0.33-0.55-0.11-0.06-0.4-0.31 1.26L226.73 91l-0.25-0.09ZM147.92 38.19l-0.06-0.35-0.59-0.45-0.36 1-0.12-0.16 1.09 0 0.35-0.25-0.36-0.25-0.2-0.52-0.35-0.63-0.82Zm68.09 42-0.3-0.29-0.22-0.48-0.38-0.34-0.22-0.49 0-0.43 0 0.79-0.15-0.26 0ZM188.18 48.37l-0.39-0.15-0.11-0.54-0.25-0.33-0.26-0.13L187 47l0.24-0.06-0.16-0.19Zm40.12 56.38-0.1-0.22 0-0.54-1.23-0.06-0.38 1.24-0.12Zm0.1-2.33-0.37-1v-0.86l0.48-0.26-0.3 1.1 1ZM165 3.62l-0.35-0.29 0-0.35-0.23 0 0.28 0 0.21-0.27-0.16Zm0.55-2.88-0.39-0.16-0.12-0.19-0.33L165.6 0l0.18ZM149.5 40.44l-0.16-0.34-0.54h-0.66l-0.14Z"/>
        <path id="AU-TAS" class="cls-2" d="M191.71 215.23l-0.47-0.1-0.24-0.73-0.11-0.49-0.37-0.47-0.1-1.23-0.07-0.12-0.08-0.09-0.22-0.16-0.05-0.68-0.4-0.14-0.6-0.94-0.23V213l-0.4-0.33-0.22-1.5-0.19-0.12-0.09-0.62-1.26-0.75-1.18-0.11-0.12h-0.36l-0.29-0.47-0.21-0.44-0.39-1.44-0.24-0.26-0.29-0.08-0.35-2.28 0-0.43-0.13 1 0.75 1.14-1.31-0.3-0.21-0.23 0-1-1.1-0.11-0.31v-0.46l-0.08-0.34-0.36-0.73-0.73-0.69-0.57-1L179.13 197l0.06-0.26-0.16-0.79-0.17-0.33-0.1-0.74-0.42v-0.86l0.35-0.23 1.26-0.15 1.15 1.88 1.11 1.8 1.2-0.16 0-0.26-0.47-0.14h0.47l-0.17-0.24-0.39-0.09-0.11-0.11 0-0.36-0.23-0.39 1.18-0.23-0.24-1 0.13-0.08-0.09h0.19l0.36-0.21-0.3-0.45-0.13h0.23l0.37-0.36 1.27 0 0.39 0 0.57-0.25 0 0.64-0.28 1.51 1.66 0 0.86-0.29-0.21-0.17 0-0.18-0.19-0.5-0.4-1.08-0.25-0.4-0.65 1.3-0.43 3.08-0.25-0.08-0.41-0.23h0.25l-0.11-0.23-0.12 0 0.54-0.21-0.09-0.05h-0.14l-0.4-0.35-0.4-0.22-0.52-0.64-0.36-0.75-0.08-0.37-0.56-0.05 0 0.19-0.09 0 0.18-0.15-0.42-0.73-1.32-0.8-0.19 0-0.31-0.15-0.55-0.13-0.32-0.06-0.09-0.78-0.51-0.33-0.12-0.33-0.15-0.08-0.19-0.2 0-0.45-0.29-0.41-0.49-0.08-0.48-0.12 0-0.12v0.52l0.71-0.23-0.3-0.28-0.08ZM198.54 190l-0.5-0.28-0.15-0.55 0-0.16-0.64-1.21-0.81-0.72-0.9-0.21 1.12 1.49 0 0.21 1.45 0 0.2-0.16-0.71Zm-23.71-1-0.2-0.14-0.07-0.38-0.08v-0.51l-0.32-0.42 0-0.4-1.18-0.32-0.2-0.05-0.42-0.06 1.19-0.06-0.17Zm24.9 2.7 0-0.35-0.1-0.15-1.3-0.51-0.22v-0.29l0.38-0.3 0 0.4-0.4v0.08l-0.39Zm-5.84 22.76-0.36-0.16-0.36-0.3-0.62 1-1.23-0.24Zm0.33-1.93-0.39-0.82-0.63 0 0.09Zm3.68-3.92 0-1 0.32-0.25 0 0.26 0 0.08h-0.39Zm-17.62-15.23-0.1-0.08 0-0.35-0.4Z"/>
      </g>
    </g>
  </g>
</svg>
